<svg width="46" height="46" viewBox="0 0 46 46" fill="none" xmlns="http://www.w3.org/2000/svg">
<path d="M24.8333 3.83325C13.2539 3.83325 3.83334 13.2539 3.83334 24.8333V33.5336C3.83334 35.684 5.71704 37.4333 8.03334 37.4333H10.1333C10.6903 37.4333 11.2244 37.212 11.6183 36.8182C12.0121 36.4244 12.2333 35.8902 12.2333 35.3333V24.533C12.2333 23.976 12.0121 23.4419 11.6183 23.048C11.2244 22.6542 10.6903 22.433 10.1333 22.433H8.22654C9.39414 14.306 16.3871 8.03325 24.8333 8.03325C33.2795 8.03325 40.2725 14.306 41.4401 22.433H39.5333C38.9764 22.433 38.4422 22.6542 38.0484 23.048C37.6546 23.4419 37.4333 23.976 37.4333 24.533V37.4333C37.4333 39.7495 35.5496 41.6333 33.2333 41.6333H29.0333V39.5332H20.6333V45.8333H33.2333C37.8659 45.8333 41.6333 42.0658 41.6333 37.4333C43.9496 37.4333 45.8333 35.684 45.8333 33.5336V24.8333C45.8333 13.2539 36.4127 3.83325 24.8333 3.83325Z" fill="#E2BF17"/>
</svg>
